Coordinates
version=1
nRows=60
nColumns=12
inDegrees=yes

Units are S.I. units (second, meters, Newtons, ...)
Angles are in degrees

endheader
time	SC_y	SC_z	SC_x	AC_y	AC_z	AC_x	GH_y	GH_z	GH_yy	EL_x	PS_y
       0.0              -48.29          25.12          81.59          46.23         -9.128         -18.82         -36.42          61.53         -71.43          12.84          96.71
   0.04763              -48.29          25.12          81.59          46.23         -9.127         -18.82         -36.41          61.52         -71.41          12.85          96.72
   0.09526              -48.29          25.12          81.59          46.23         -9.126         -18.81          -36.4          61.51          -71.4          12.86          96.72
    0.1429              -48.29          25.11          81.59          46.24         -9.125         -18.81         -36.39           61.5         -71.39          12.88          96.72
    0.1905              -48.29          25.11          81.59          46.24         -9.124          -18.8         -36.38          61.48         -71.37          12.89          96.73
    0.2381              -48.28          25.11          81.59          46.24         -9.123          -18.8         -36.37          61.47         -71.36          12.91          96.73
    0.2858              -48.28          25.11          81.59          46.24         -9.122         -18.79         -36.36          61.45         -71.34          12.93          96.74
    0.3334              -48.28           25.1          81.59          46.25         -9.121         -18.78         -36.34          61.44         -71.32          12.95          96.74
     0.381              -48.28           25.1          81.59          46.25         -9.119         -18.78         -36.33          61.42          -71.3          12.97          96.75
    0.4287              -48.28           25.1          81.59          46.25         -9.118         -18.77         -36.32           61.4         -71.28          12.99          96.76
    0.4763              -48.28          25.09          81.59          46.26         -9.116         -18.76          -36.3          61.38         -71.26          13.01          96.76
    0.5239              -48.27          25.09          81.59          46.26         -9.114         -18.76         -36.29          61.36         -71.24          13.04          96.77
    0.5716              -48.27          25.08          81.59          46.27         -9.112         -18.75         -36.27          61.34         -71.21          13.07          96.78
    0.6192              -48.27          25.08          81.59          46.27          -9.11         -18.74         -36.25          61.31         -71.18           13.1          96.79
    0.6668              -48.27          25.07          81.59          46.27         -9.108         -18.73         -36.23          61.28         -71.15          13.13           96.8
    0.7144              -48.26          25.07          81.59          46.28         -9.106         -18.72          -36.2          61.25         -71.12          13.16          96.81
    0.7621              -48.26          25.06          81.59          46.29         -9.103         -18.71         -36.18          61.22         -71.09           13.2          96.82
    0.8097              -48.26          25.05          81.59          46.29           -9.1         -18.69         -36.15          61.18         -71.05          13.24          96.83
    0.8573              -48.25          25.05          81.59           46.3         -9.097         -18.68         -36.12          61.15         -71.01          13.29          96.84
     0.905              -48.25          25.04          81.59          46.31         -9.094         -18.66         -36.09           61.1         -70.96          13.34          96.85
    0.9526              -48.25          25.03           81.6          46.32          -9.09         -18.65         -36.06          61.06         -70.91          13.39          96.87
       1.0              -48.24          25.02           81.6          46.32         -9.086         -18.63         -36.02          61.01         -70.86          13.45          96.89
     1.048              -48.24          25.01           81.6          46.33         -9.081         -18.61         -35.98          60.95         -70.79          13.52          96.91
     1.095              -48.23           25.0           81.6          46.35         -9.076         -18.58         -35.93          60.89         -70.73          13.59          96.93
     1.143              -48.22          24.98           81.6          46.36         -9.071         -18.56         -35.88          60.82         -70.65          13.67          96.95
     1.191              -48.22          24.97           81.6          46.37         -9.064         -18.53         -35.82          60.74         -70.57          13.76          96.97
     1.238              -48.21          24.95           81.6          46.39         -9.057          -18.5         -35.75          60.65         -70.47          13.86           97.0
     1.286               -48.2          24.93           81.6          46.41         -9.049         -18.46         -35.68          60.55         -70.37          13.98          97.04
     1.334              -48.19          24.91           81.6          46.43          -9.04         -18.42         -35.59          60.44         -70.25          14.11          97.07
     1.381              -48.18          24.89          81.61          46.45          -9.03         -18.38          -35.5          60.32         -70.11          14.25          97.11
     1.429              -48.16          24.86          81.61          46.47         -9.019         -18.33         -35.39          60.17         -69.96          14.42          97.16
     1.477              -48.15          24.83          81.61           46.5         -9.005         -18.27         -35.27          60.01         -69.78          14.61          97.21
     1.524              -48.13          24.79          81.61          46.54          -8.99          -18.2         -35.12          59.82         -69.57          14.83          97.28
     1.572              -48.11          24.75          81.62          46.58         -8.972         -18.12         -34.96           59.6         -69.33          15.09          97.35
     1.619              -48.08           24.7          81.62          46.62         -8.952         -18.02         -34.76          59.34         -69.05          15.39          97.43
     1.667              -48.06          24.64          81.63          46.68         -8.927         -17.91         -34.53          59.03         -68.72          15.75          97.53
     1.715              -48.02          24.57          81.63          46.74         -8.898         -17.78         -34.26          58.67         -68.33          16.17          97.65
     1.762              -47.98          24.49          81.64          46.82         -8.863         -17.62         -33.93          58.23         -67.86          16.67           97.8
      1.81              -47.93          24.39          81.65          46.91         -8.821         -17.43         -33.54          57.71         -67.29          17.29          97.97
     1.858              -47.87          24.26          81.66          47.03         -8.769          -17.2         -33.06          57.07          -66.6          18.03          98.18
     1.905               -47.8          24.11          81.67          47.17         -8.705         -16.91         -32.46          56.27         -65.74          18.96          98.44
     1.953               -47.7          23.92          81.68          47.35         -8.626         -16.55         -31.71          55.28         -64.68          20.11          98.76
       2.0              -47.59          23.68           81.7          47.57         -8.525          -16.1         -30.78          54.04         -63.33          21.56          99.17
     2.048              -47.44          23.38          81.73          47.85         -8.398         -15.53         -29.59          52.45         -61.62           23.4          99.69
     2.096              -47.25          22.99          81.76          48.22         -8.235         -14.79         -28.06          50.43         -59.43          25.76          100.4
     2.143               -47.0          22.49           81.8          48.68         -8.026         -13.85         -26.11          47.83         -56.62          28.78          101.2
     2.191              -46.69          21.85          81.85          49.28         -7.758         -12.65         -23.61           44.5         -53.03          32.65          102.3
     2.239               -46.3          21.05          81.91          50.02         -7.422         -11.13         -20.46          40.33         -48.52          37.51          103.7
     2.286              -45.82          20.07          81.99          50.93         -7.013         -9.286         -16.63          35.23         -43.02          43.43          105.3
     2.334              -45.27          18.94          82.08          51.99         -6.538         -7.146          -12.2          29.33         -36.65          50.29          107.3
     2.381              -44.67          17.72          82.18          53.13         -6.024          -4.83          -7.39          22.94         -29.75          57.73          109.4
     2.429              -44.07          16.49          82.28          54.28          -5.51         -2.514         -2.584          16.55         -22.84          65.16          111.5
     2.477              -43.51          15.36          82.37          55.33         -5.036        -0.3744          1.855          10.65         -16.47          72.03          113.4
     2.524              -43.04          14.38          82.45          56.24         -4.626          1.471          5.685          5.562         -10.97          77.95          115.1
     2.572              -42.64          13.58          82.51          56.99          -4.29          2.986          8.827          1.384         -6.459          82.81          116.5
      2.62              -42.33          12.94          82.56          57.59         -4.023           4.19          11.33         -1.939         -2.871          86.67          117.5
     2.667              -42.09          12.44           82.6          58.05         -3.814          5.133          13.28          -4.54       -0.06124           89.7          118.4
     2.715               -41.9          12.05          82.63          58.41         -3.651          5.868          14.81         -6.567          2.128          92.06          119.1
     2.763              -41.75          11.75          82.66           58.7         -3.523          6.442           16.0          -8.15          3.838           93.9          119.6
      2.81              -41.63          11.51          82.68          58.92         -3.423          6.894          16.94         -9.396          5.184          95.35          120.0
